<svg width="89" height="104" viewBox="0 0 89 104" fill="none" xmlns="http://www.w3.org/2000/svg">
<line x1="2.70711" y1="1.29289" x2="12.7071" y2="11.2929" stroke="#34251F" stroke-width="2"/>
<line x1="77.7071" y1="1.29289" x2="87.7071" y2="11.2929" stroke="#34251F" stroke-width="2"/>
<line x1="52.7071" y1="1.29289" x2="62.7071" y2="11.2929" stroke="#34251F" stroke-width="2"/>
<line x1="27.7071" y1="1.29289" x2="37.7071" y2="11.2929" stroke="#34251F" stroke-width="2"/>
<line x1="2.70711" y1="24.2929" x2="12.7071" y2="34.2929" stroke="#34251F" stroke-width="2"/>
<line x1="77.7071" y1="24.2929" x2="87.7071" y2="34.2929" stroke="#34251F" stroke-width="2"/>
<line x1="52.7071" y1="24.2929" x2="62.7071" y2="34.2929" stroke="#34251F" stroke-width="2"/>
<line x1="27.7071" y1="24.2929" x2="37.7071" y2="34.2929" stroke="#34251F" stroke-width="2"/>
<line x1="2.70711" y1="47.2929" x2="12.7071" y2="57.2929" stroke="#34251F" stroke-width="2"/>
<line x1="77.7071" y1="47.2929" x2="87.7071" y2="57.2929" stroke="#34251F" stroke-width="2"/>
<line x1="52.7071" y1="47.2929" x2="62.7071" y2="57.2929" stroke="#34251F" stroke-width="2"/>
<line x1="27.7071" y1="47.2929" x2="37.7071" y2="57.2929" stroke="#34251F" stroke-width="2"/>
<line x1="2.70711" y1="70.2929" x2="12.7071" y2="80.2929" stroke="#34251F" stroke-width="2"/>
<line x1="77.7071" y1="70.2929" x2="87.7071" y2="80.2929" stroke="#34251F" stroke-width="2"/>
<line x1="52.7071" y1="70.2929" x2="62.7071" y2="80.2929" stroke="#34251F" stroke-width="2"/>
<line x1="27.7071" y1="70.2929" x2="37.7071" y2="80.2929" stroke="#34251F" stroke-width="2"/>
<line x1="2.70711" y1="93.2929" x2="12.7071" y2="103.293" stroke="#34251F" stroke-width="2"/>
<line x1="77.7071" y1="93.2929" x2="87.7071" y2="103.293" stroke="#34251F" stroke-width="2"/>
<line x1="52.7071" y1="93.2929" x2="62.7071" y2="103.293" stroke="#34251F" stroke-width="2"/>
<line x1="27.7071" y1="93.2929" x2="37.7071" y2="103.293" stroke="#34251F" stroke-width="2"/>
</svg>
